<?xml version="1.0" standalone="no"?>
<!DOCTYPE svg PUBLIC "-//W3C//DTD SVG 20010904//EN"
 "http://www.w3.org/TR/2001/REC-SVG-20010904/DTD/svg10.dtd">
<svg version="1.0" xmlns="http://www.w3.org/2000/svg"
 width="512.000000pt" height="512.000000pt" viewBox="0 0 512.000000 512.000000"
 preserveAspectRatio="xMidYMid meet">
<metadata>
Created by potrace 1.14, written by Peter Selinger 2001-2017
</metadata>
<g transform="translate(0.000000,512.000000) scale(0.100000,-0.100000)"
fill="#000000" stroke="none">
<path d="M544 5106 c-36 -16 -66 -53 -121 -151 -22 -38 -93 -161 -157 -272
-174 -302 -171 -315 109 -468 69 -38 165 -96 165 -100 0 -1 -20 -41 -45 -87
-88 -166 -207 -481 -229 -608 -2 -14 -9 -43 -14 -65 -6 -22 -14 -56 -17 -75
-3 -19 -7 -46 -10 -60 -2 -14 -7 -45 -11 -70 -3 -25 -8 -56 -10 -70 -29 -206
-24 -573 11 -800 24 -161 26 -169 60 -309 86 -346 225 -660 419 -946 33 -49
63 -92 66 -95 3 -3 32 -39 64 -80 33 -41 112 -127 175 -190 372 -371 797 -577
1331 -647 73 -9 368 -10 451 -1 520 59 969 277 1344 653 309 308 534 690 673
1140 36 116 63 221 77 295 3 14 8 41 12 60 3 19 7 42 8 50 2 18 15 105 21 140
24 148 24 600 0 730 -3 14 -8 45 -11 70 -6 57 -11 80 -40 215 -47 216 -139
471 -236 654 -28 52 -47 97 -42 102 4 4 80 49 168 99 190 109 179 101 201 148
31 66 19 114 -63 244 -12 21 -23 40 -23 42 0 3 -24 45 -53 93 -29 48 -58 99
-65 113 -41 80 -131 216 -153 233 -14 10 -44 21 -66 24 -41 5 -88 -12 -183
-69 -108 -64 -1001 -579 -1012 -583 -23 -9 -57 -69 -64 -112 -6 -39 -2 -51 44
-130 132 -232 203 -429 246 -688 8 -49 18 -106 21 -125 4 -19 8 -136 10 -260
3 -243 -13 -417 -55 -595 -131 -556 -436 -949 -816 -1054 -99 -27 -261 -23
-359 9 -170 54 -338 177 -453 330 -15 19 -30 37 -33 40 -11 9 -95 142 -132
211 -50 90 -107 242 -145 379 -30 111 -36 138 -48 225 -3 22 -7 46 -9 53 -19
58 -28 489 -12 627 36 326 125 606 275 858 33 57 39 75 37 113 -5 83 -15 92
-356 287 -123 71 -231 133 -239 138 -80 48 -223 129 -228 129 -3 0 -13 6 -21
14 -9 7 -41 27 -71 43 -30 17 -104 59 -164 93 -118 68 -167 81 -222 56z m368
-487 c134 -78 261 -151 283 -163 22 -13 56 -32 75 -43 19 -11 76 -44 125 -73
50 -28 91 -53 93 -54 1 -2 -20 -50 -47 -107 -69 -146 -143 -368 -166 -502 -45
-255 -50 -309 -50 -572 0 -179 6 -302 19 -375 3 -14 7 -43 10 -65 10 -71 17
-109 36 -191 19 -82 73 -262 90 -299 5 -11 21 -49 36 -85 107 -262 307 -529
514 -687 107 -81 278 -165 395 -194 110 -28 310 -34 413 -12 572 118 1015 703
1132 1493 33 220 36 638 6 795 -2 11 -7 45 -11 75 -4 30 -9 64 -12 75 -2 11
-6 31 -9 45 -29 150 -99 362 -165 499 -27 57 -48 105 -47 106 10 9 821 475
826 475 4 0 19 -21 33 -47 14 -27 48 -87 77 -135 37 -63 48 -89 39 -96 -7 -5
-32 -20 -57 -34 -25 -14 -61 -35 -80 -46 -205 -116 -221 -128 -240 -177 -14
-37 -12 -86 4 -115 7 -14 40 -72 73 -130 157 -279 274 -635 308 -940 28 -244
26 -540 -6 -740 -16 -105 -19 -124 -24 -140 -2 -8 -6 -26 -9 -40 -20 -114 -80
-309 -140 -453 -220 -531 -603 -952 -1072 -1178 -141 -68 -322 -129 -449 -152
-49 -9 -103 -19 -120 -23 -51 -10 -376 -12 -450 -2 -125 17 -266 48 -374 84
-99 32 -303 125 -360 163 -14 10 -60 40 -101 67 -110 73 -182 134 -310 263
-293 297 -504 676 -624 1121 -26 97 -53 233 -62 305 -2 22 -6 45 -9 51 -24 71
-25 562 0 704 7 44 15 94 21 135 12 79 74 305 109 402 47 126 144 325 208 428
44 70 51 87 51 135 1 76 -22 105 -136 170 -51 30 -130 76 -175 102 l-82 48 66
113 c36 61 71 122 77 134 6 13 14 23 18 23 4 0 116 -63 250 -141z"/>
<path d="M844 3307 c-73 -27 -111 -87 -101 -159 18 -135 189 -177 269 -66 30
43 31 125 2 165 -45 60 -108 82 -170 60z"/>
<path d="M4186 3309 c-65 -18 -113 -95 -102 -165 24 -147 224 -173 282 -35 49
117 -56 234 -180 200z"/>
<path d="M866 2645 c-70 -24 -105 -78 -101 -152 5 -80 65 -137 145 -136 57 0
91 19 128 73 73 108 -47 258 -172 215z"/>
<path d="M4164 2644 c-44 -15 -90 -61 -100 -99 -12 -47 5 -110 37 -143 96 -98
253 -35 253 101 0 106 -93 174 -190 141z"/>
<path d="M1050 2006 c-73 -23 -111 -70 -112 -139 -2 -100 89 -173 185 -146
113 31 147 172 61 252 -36 34 -90 47 -134 33z"/>
<path d="M4008 2009 c-76 -20 -119 -74 -120 -149 -2 -147 210 -199 278 -68 57
111 -43 248 -158 217z"/>
<path d="M1376 1435 c-47 -16 -75 -41 -92 -82 -42 -99 25 -203 134 -206 110
-3 183 109 136 208 -21 45 -44 64 -96 80 -36 10 -51 11 -82 0z"/>
<path d="M3655 1434 c-125 -42 -139 -215 -23 -273 75 -37 163 -8 198 64 24 50
25 86 4 130 -21 45 -44 64 -96 80 -37 11 -51 11 -83 -1z"/>
<path d="M1877 1006 c-50 -18 -67 -34 -88 -81 -43 -98 26 -205 133 -205 47 0
81 13 108 42 106 112 -8 295 -153 244z"/>
<path d="M3140 1004 c-77 -33 -111 -118 -79 -198 24 -57 70 -86 141 -86 108 0
175 113 125 211 -36 70 -118 102 -187 73z"/>
<path d="M2515 842 c-93 -31 -132 -146 -78 -228 21 -32 83 -64 125 -64 75 1
146 72 148 147 1 101 -99 176 -195 145z"/>
</g>
</svg>
